<svg id="Layer_1" data-name="Layer 1" xmlns="http://www.w3.org/2000/svg" viewBox="0 0 739.85 120.76"><defs><style>.cls-1{fill:none;}.cls-2{fill:#00a82d;}.cls-3{fill:#fff;}</style></defs><title>ForgetMeNote_Lockup_Primary_RGB</title><rect class="cls-1" x="-51.27" y="-51.13" width="649.92" height="223.16"/><path class="cls-2" d="M32.3,27.13c0,1.17-.1,3.19-1.32,4.5s-3.32,1.31-4.49,1.31H13.69a67,67,0,0,0-7.4.2,10.49,10.49,0,0,0-2.3.7c-.16.06-.2,0-.1-.1L33.1,4c.1-.1.16-.05.1.1a10.49,10.49,0,0,0-.7,2.3,67,67,0,0,0-.2,7.4ZM59.45,117a15.29,15.29,0,0,1-5.89-6.9A15.09,15.09,0,0,1,67.7,89.44a4.48,4.48,0,0,1,4.5,4.5,4.55,4.55,0,0,1-2.32,3.93,5.74,5.74,0,0,1-1.7.59,7.38,7.38,0,0,0-3.3,1.07A4.48,4.48,0,0,0,63.1,103a5.52,5.52,0,0,0,1.6,3.9,9.52,9.52,0,0,0,6.8,2.8,12.29,12.29,0,0,0,12.3-12.3c0-6.1-4.1-11.5-9.5-13.9a18.65,18.65,0,0,0-3.3-1c-1.5-.3-2.9-.5-3-.5-4.2-.5-14.7-3.8-15.4-13.1,0,0-3.1,14-9.3,17.8a10.22,10.22,0,0,1-2.3.8,13.44,13.44,0,0,1-2.2.3c-10.1.6-20.8-2.6-28.2-10.2,0,0-5-4.1-7.6-15.6-.6-2.8-1.8-7.8-2.5-12.5-.3-1.7-.4-3-.5-4.2,0-4.85,3-8.19,6.76-8.66a5.11,5.11,0,0,1,.58,0H27.1c3.5,0,5.5-.9,6.8-2.1,1.7-1.6,2.1-3.9,2.1-6.6V7.49a5.14,5.14,0,0,1,0-.59C36.5,3.16,39.85.14,44.7.14h2.4a24,24,0,0,1,6,.8c6.1,1.52,7.4,7.7,7.4,7.7l17.3,3c5.5,1,19.1,1.9,21.7,15.6,6.1,32.6,2.4,64.2,2.1,64.2-4.3,30.8-29.9,29.3-29.9,29.3A22.3,22.3,0,0,1,59.45,117Zm23-65.57c-3.31-.35-6.11,1-7.15,3.51a2.65,2.65,0,0,0-.28,1.41.84.84,0,0,0,.51.49A22.29,22.29,0,0,0,81.7,58a22.76,22.76,0,0,0,6.23.27.85.85,0,0,0,.61-.36,2.5,2.5,0,0,0,.07-1.43C88.21,53.8,85.79,51.86,82.5,51.41Z"/><path d="M456.15,83.93a14.21,14.21,0,0,1,2.31-1.08c4.31-1.19,4.66-1.58,4.66-6q0-21.72,0-43.43v-2l-.56-.12c-.33.85-.66,1.7-1,2.56Q452.91,57.45,444.23,81c-.47,1.27-.77,2.31-2.6,2.32s-2.33-1-2.84-2.41Q430.42,57.41,422,33.88a7,7,0,0,0-1.3-2.44,15.65,15.65,0,0,0-.2,1.81q0,21.32,0,42.64c0,5,.51,5.6,5.3,7A11.09,11.09,0,0,1,427.83,84l-.28.64H410.44l-.36-.57A9.49,9.49,0,0,1,412,82.93c4.29-1.36,4.85-1.73,4.91-6.26.16-13.51.12-27,.14-40.52,0-2.83-.06-5.65-.05-8.47s-1.39-4.39-4.11-5a18.62,18.62,0,0,1-2.79-1.07l.22-.74h25.77c4.3,11.65,8.68,23.52,13.25,35.92.52-1.11.87-1.75,1.12-2.42,3.9-10.4,7.85-20.79,11.6-31.24.74-2.07,1.74-2.59,3.81-2.55,7.48.12,15,.05,22.47.05l.29.66a7.93,7.93,0,0,1-1.74,1.1c-4.94,1.56-5.08,1.63-5.09,6.81q-.06,23.57,0,47.14c0,5,.22,5.15,5,6.61a15.81,15.81,0,0,1,1.84.81l-.18.71h-32Z"/><path d="M316.8,38.65c1.82,2.69,4.16,5.13,5.28,8.05,2.11,5.46-.46,12.08-5.6,15.54-7.2,4.85-15.1,4.85-23.13,2.72-1.7-.45-2.44,0-3.08,1.41-1.21,2.69-.19,4.46,3,4.53,6.44.13,12.88.07,19.32.11a25.22,25.22,0,0,1,3.69.23c10,1.58,14.22,9.22,10.31,18.69a19.11,19.11,0,0,1-11.21,10.62c-9.45,3.73-19.11,3.66-28.82,1.11a12.39,12.39,0,0,1-3.13-1.4c-5.69-3.41-5.7-10.72,0-14a56.63,56.63,0,0,1,6.62-2.73c-4.68-1.56-7.89-4.12-7.69-9.41.19-5,3.31-7.94,7.18-10.69-3.49-2.23-6.28-4.81-7.14-8.88a15.23,15.23,0,0,1,9.82-17.81,26.32,26.32,0,0,1,19.15-.26c2.42.91,3.94.66,5.74-1.07a10.54,10.54,0,0,1,9-3.05c3.29.44,5.15,3.12,4.59,6.51a4.28,4.28,0,0,1-5.86,3.62,5.47,5.47,0,0,1-2.76-2.45C320.36,37,319.33,36.68,316.8,38.65ZM302.88,84.34v-.09c-2.73,0-5.47-.07-8.2,0a3.49,3.49,0,0,0-2.28.92c-4.07,4.54-1.36,13.51,4.56,14.84a25.65,25.65,0,0,0,14.83-1,11.41,11.41,0,0,0,2.76-1.51,8.27,8.27,0,0,0,2.92-9c-.75-2.58-2.9-4-6.65-4.22C308.18,84.23,305.53,84.34,302.88,84.34Zm5.3-33.86c-.36-2.67-.66-6-1.28-9.26-.48-2.49-2.26-3.62-4.83-3.54a4.27,4.27,0,0,0-4.45,3.71,43.54,43.54,0,0,0,.05,18.08c.67,3.06,2.26,4.14,5,4s4.17-1.45,4.67-4.48C307.76,56.44,307.87,53.79,308.18,50.48Z"/><path d="M589.77,56.23c0-9.84.06-18.84,0-27.84,0-3.58-1-4.6-4.48-5.53-1.13-.31-2.23-.72-3.35-1.08l.23-.87h17.68l.31.6a8.33,8.33,0,0,1-2.3,1.13c-3.1.46-4.37,2.31-4.39,5.28-.06,6.45-.18,12.89-.19,19.33,0,11.39,0,22.78,0,34.17v3c-3.48.86-5.66.12-7.74-2.87-11.29-16.23-22.85-32.26-34.33-48.36-.44-.62-.94-1.19-1.76-2.22-.07,1.38-.15,2.23-.15,3.07q0,20.4,0,40.79c0,.71,0,1.42.08,2.12.39,4,1,4.7,4.95,5.74A23.31,23.31,0,0,1,557,83.81l-.27.78h-18.2c.71-.7,1.05-1.35,1.5-1.43,5.59-1,5.68-3.09,5.73-8.44.11-10.94,0-21.89,0-32.84,0-4.06,0-8.12,0-12.18,0-5.05-.64-5.8-5.42-7.34a9.06,9.06,0,0,1-1.53-.82l.18-.67c.72-.07,1.44-.2,2.16-.2,6.89,0,13.78,0,20.66-.05a3.72,3.72,0,0,1,3.48,1.77c7.38,10.34,14.83,20.64,22.26,31C588.13,54.1,588.72,54.84,589.77,56.23Z"/><path d="M160.6,23.38V51c2.85-.21,5.72-.06,8.37-.74,1.45-.38,2.87-2,3.71-3.34,1-1.61,1.29-3.63,2-5.44a11.65,11.65,0,0,1,1.12-1.88l.66.25V65.73c-.81-.89-1.41-1.28-1.62-1.82-.67-1.81-1.14-3.7-1.8-5.53a6.66,6.66,0,0,0-7.07-4.8c-1.74.05-3.49,0-5.33,0,0,8.75,0,17.29,0,25.83,0,2.47,2.05,2.75,3.87,3.18,1.27.31,2.53.67,3.79,1l-.24.94H135.28L135,84a13.36,13.36,0,0,1,2.14-1.07c4.25-1.21,4.77-1.66,4.78-6q.09-24.24,0-48.48c0-4.21-.6-4.74-4.6-5.86a17.91,17.91,0,0,1-2.3-1l.19-.68h50.24q.47,10.07.93,20.19l-.75.45a11.6,11.6,0,0,1-1.63-2c-1.83-3.62-3.56-7.28-5.37-10.91-1.91-3.83-5.14-5.37-9.3-5.3C166.48,23.42,163.61,23.38,160.6,23.38Z"/><path d="M184.76,60.36c.06-15.8,10.11-25.56,26.43-25.37,14.47.17,25.29,9.81,24.8,26.41-.44,15.1-10.33,24.52-26.53,24.44C194.6,85.77,184.71,75.57,184.76,60.36Zm35.16,0c-.84-5.49-1.49-11.62-2.81-17.6-.81-3.66-3.34-5.06-6.83-5.08s-5.65,1.38-6.75,5.14a47.25,47.25,0,0,0-1.75,9.58c-.64,8.28-.68,16.58,1.37,24.71,1.11,4.39,3.39,6,7.52,6s6.2-1.58,7.07-6.07C218.76,71.8,219.16,66.43,219.92,60.37Z"/><path d="M600.78,60.39c0-15.81,10.09-25.58,26.39-25.4,14.53.16,25.32,9.84,24.84,26.37-.44,15.12-10.31,24.55-26.5,24.48C610.64,85.78,600.74,75.59,600.78,60.39Zm35,1.48c-.5-5.43-.89-10.08-1.4-14.72a18.7,18.7,0,0,0-1-4.09c-1.31-3.76-3.41-5.33-7-5.37s-5.76,1.42-6.89,5.33a46.82,46.82,0,0,0-1.67,9.33c-.64,8.19-.66,16.4,1.29,24.46,1.12,4.62,3.35,6.32,7.54,6.31s6.27-1.59,7.18-6.27C634.81,71.68,635.18,66.4,635.74,61.87Z"/><path d="M373.32,75.17a14.31,14.31,0,0,1-1.47,2.49c-9.69,11-26.73,9.64-34.74,4.12-5.05-3.49-7.43-8.65-8.28-14.51-1.39-9.6-.1-18.53,7.27-25.67,7.06-6.84,19.31-8.78,28.17-4.52a14.52,14.52,0,0,1,7.77,8c1.43,3.91,2.23,8.06,3.45,12.62h-31c-.22,5.22.21,10,2.69,14.33s6.65,5.52,11.23,5.81a26.09,26.09,0,0,0,14.32-3.07ZM359.46,54.1c-.58-4.34-1-8.26-1.66-12.12a4.87,4.87,0,0,0-4.45-4.26,5.91,5.91,0,0,0-6.25,3.06c-2.42,4.36-2.78,9.13-2.64,14.27Z"/><path d="M535.49,75.21a16.12,16.12,0,0,1-1.51,2.5c-9.62,10.83-26.38,9.64-34.53,4.19-5.1-3.42-7.52-8.55-8.4-14.43-1.43-9.49-.27-18.36,6.89-25.53s19.21-9.18,28.3-4.95c3.59,1.67,6.5,4.21,7.87,7.87,1.5,4,2.32,8.21,3.58,12.85H506.61c-.19,5.13.23,9.8,2.6,14.11,2.47,4.49,6.72,5.7,11.39,6a26.46,26.46,0,0,0,14.32-3.07ZM521.61,54.09c-.57-4.27-1-8.27-1.68-12.21a4.81,4.81,0,0,0-4.25-4.14,5.82,5.82,0,0,0-6.18,2.68c-2.69,4.45-3,9.38-2.84,14.64Z"/><path d="M734.33,57.78H703.22c-.2,5.13.24,9.9,2.73,14.25s6.67,5.49,11.25,5.78a33.61,33.61,0,0,0,14.87-2.69,14.61,14.61,0,0,1-1.65,2.76c-6.33,6.67-14.26,8.86-23.17,7.77C693.31,84,686.51,75,687.17,59.58c.75-17.7,16.51-28.76,33.45-23.46,4.62,1.44,8.31,4.25,10.09,8.72C732.28,48.79,733.05,53.05,734.33,57.78Zm-16.05-3.69c-.64-4.47-.82-8.64-1.91-12.55a5.45,5.45,0,0,0-9.65-1.82c-3.57,4.45-3.49,9.84-3.53,15.35Z"/><path d="M266,84.62H238.33L238,84a7.9,7.9,0,0,1,2.18-1.22c2.77-.54,3.69-2.18,3.67-4.9q-.12-16,0-32a6.24,6.24,0,0,0-3.37-6.08,27.13,27.13,0,0,1-2.67-1.91l.16-.74,5.86-.62c4.47-.48,8.95-.89,13.42-1.45,1.84-.23,2.64.27,2.49,2.22-.11,1.55,0,3.11,0,5.15,1.79-1.58,3.11-3,4.63-4.07,2.82-2.06,5.89-3.54,9.54-3.37s6,2.1,6.54,5.36c.74,4.35-.84,7.77-4.17,9a6.93,6.93,0,0,1-8.92-3c-1.94-3.21-2.88-3.7-5.45-2.18a4.23,4.23,0,0,0-1.88,3c-.14,10.41-.05,20.83-.11,31.25,0,2.55,1,4,3.55,4.33a15.58,15.58,0,0,1,2.88,1Z"/><path d="M381.05,41.19h-5l-.2-.6c.68-.39,1.35-.81,2-1.17,5.93-3.07,11-7.18,14.14-13.12,1.14-2.13,2.44-2.76,5-2.08V36.57h11.69c-.23,1.72-.43,3.16-.65,4.73H397.3c-.05,1.07-.14,2-.14,2.92q0,13.64,0,27.29c0,6.43,1.75,8,8.18,7.32,1.3-.13,2.58-.36,4.61-.66a18.48,18.48,0,0,1-1.59,2.49c-5.08,5.24-15.2,6.94-21.69,3.64-4.59-2.34-5.55-6.62-5.59-11.19-.09-9.54,0-19.08,0-28.62Z"/><path d="M687.35,78.19A27.83,27.83,0,0,1,685.18,81c-5.1,4.85-14.39,6.45-20.82,3.56-5-2.22-6.06-6.61-6.11-11.4-.1-9.54,0-19.08,0-28.62V41.47l-5-.28-.65-.85a13.72,13.72,0,0,0,1.45-.49A34.41,34.41,0,0,0,670,25.27c.55-1,2.44-1.17,4.31-2V36.54h11.6c-.22,1.72-.41,3.16-.63,4.81H674.45c-.05,1.09-.12,2-.12,2.82q0,13.65,0,27.29c0,6.55,1.85,8.15,8.4,7.35C684,78.66,685.25,78.48,687.35,78.19Z"/><path class="cls-3" d="M302.88,84.34c2.65,0,5.3-.11,7.94,0,3.75.19,5.9,1.64,6.65,4.22a8.27,8.27,0,0,1-2.92,9,11.41,11.41,0,0,1-2.76,1.51,25.65,25.65,0,0,1-14.83,1c-5.92-1.33-8.63-10.3-4.56-14.84a3.49,3.49,0,0,1,2.28-.92c2.73-.12,5.47,0,8.2,0Z"/><path class="cls-3" d="M308.18,50.48c-.31,3.31-.42,6-.84,8.55-.5,3-2.07,4.38-4.67,4.48s-4.33-1-5-4a43.54,43.54,0,0,1-.05-18.08,4.27,4.27,0,0,1,4.45-3.71c2.57-.08,4.35,1,4.83,3.54C307.52,44.48,307.82,47.81,308.18,50.48Z"/><path class="cls-3" d="M219.92,60.37c-.76,6.06-1.16,11.43-2.18,16.68-.87,4.49-3.09,6-7.07,6.07s-6.41-1.61-7.52-6c-2.05-8.13-2-16.43-1.37-24.71a47.25,47.25,0,0,1,1.75-9.58c1.1-3.76,3.26-5.16,6.75-5.14s6,1.42,6.83,5.08C218.43,48.75,219.08,54.88,219.92,60.37Z"/><path class="cls-3" d="M635.74,61.87c-.56,4.53-.93,9.81-1.93,15-.91,4.68-3.11,6.26-7.18,6.27s-6.42-1.69-7.54-6.31c-2-8.06-1.93-16.27-1.29-24.46A46.82,46.82,0,0,1,619.47,43c1.13-3.91,3.31-5.37,6.89-5.33s5.65,1.61,7,5.37a18.7,18.7,0,0,1,1,4.09C634.85,51.79,635.24,56.44,635.74,61.87Z"/><path class="cls-3" d="M359.46,54.1l-15,.95c-.14-5.14.22-9.91,2.64-14.27a5.91,5.91,0,0,1,6.25-3.06A4.87,4.87,0,0,1,357.8,42C358.5,45.84,358.88,49.76,359.46,54.1Z"/><path class="cls-3" d="M521.61,54.09l-14.95,1c-.19-5.26.15-10.19,2.84-14.64a5.82,5.82,0,0,1,6.18-2.68,4.81,4.81,0,0,1,4.25,4.14C520.64,45.82,521,49.82,521.61,54.09Z"/><path class="cls-3" d="M718.28,54.09l-15.09,1c0-5.51,0-10.9,3.53-15.35a5.45,5.45,0,0,1,9.65,1.82C717.46,45.45,717.64,49.62,718.28,54.09Z"/></svg>