<svg id="Layer_1" data-name="Layer 1" xmlns="http://www.w3.org/2000/svg" viewBox="0 0 723.24 322.29"><defs><style>.cls-1{fill:none;}.cls-2{fill:#00a82d;}.cls-3{fill:#fff;}</style></defs><title>forgetmenote_stacked_logo</title><rect class="cls-1" x="102.91" width="517.42" height="321.1"/><path d="M154.18,267l3.4-.7c3-.8,3.8-1.2,3.8-7.2V212.07c0-6-.9-6.5-3.8-7.2l-3.4-.7v-2.8h54.17l1,19.89h-3.09a69,69,0,0,0-5.6-10.59c-3.2-4.6-5.3-5-12.2-5a32.51,32.51,0,0,0-9.09,1v25.48h2.7c7,0,8.59-.8,9.79-3a31,31,0,0,0,3.1-7.6h3v25.79h-3a45.67,45.67,0,0,0-3.1-8c-1.2-2.5-2.5-3-9.79-3h-2.7v19.19c0,8.9.3,9.9,10,9.9,8,0,9.6-1,12.9-5.9,1.8-2.7,3.7-6.9,6.29-13.19h3.2l-1.4,23.48H154.28l-.1-2.79Z"/><path d="M220.15,229.56c-2.3-5.6-3.4-7-5.9-7.8l-1.9-.6v-2.6H242v2.6l-2.7.7c-2.1.6-3.1,1.6-3.1,4a16.63,16.63,0,0,0,1.3,5.29l8.29,22.79h.5l8-22.79a16.11,16.11,0,0,0,1.3-5.49c0-2.2-1-3.3-3.1-3.8l-2.7-.7v-2.6h18.29v2.6l-1.9.6c-2.6.9-3.7,2.4-6.09,8.89l-15.3,39.18h-8.39Z"/><path d="M265.82,244c0-17.19,12.7-26.69,25.79-26.69,13.59,0,22.09,6.8,22.39,24.69H281.41c.3,16.19,6.4,20.59,16.6,20.59a30.85,30.85,0,0,0,14.49-3.7v3.3a29.23,29.23,0,0,1-20.89,9C274.42,270.93,265.82,260.74,265.82,244Zm15.59-5.8,16.9-.9c0-11.89-1.6-16.29-7.5-16.29C285.81,221,281.81,225.76,281.41,238.15Z"/><path d="M340.08,224.86c2.8-3,8.5-7.9,15.09-7.9a7.7,7.7,0,1,1,0,15.39,7.59,7.59,0,0,1-7-4.59h0a3.12,3.12,0,0,0-2.8-1.4c-1.8,0-3.9,1.3-5.2,2.5h0v32c0,4.6.4,5.1,3.4,5.6l3.3.7v2.69H318.39v-2.69l2.6-.7c3.3-.9,3.7-1.4,3.7-5.6V230.16c0-4.2-.5-4.5-3.3-6.4l-3.3-2.2v-2l20.79-2.4,1.1.8-.2,6.8h.3"/><path d="M365.87,267.14l2.6-.7c3.3-.9,3.7-1.4,3.7-5.6V230.16c0-4.2-.5-4.5-3.3-6.4l-3.3-2.2v-2l20.79-2.4,1.1.7-.2,6.3h.4c5.19-3.7,11.69-7,18.89-7,8.39,0,12.89,4.3,12.89,13.2v30.38c0,4.3.4,4.8,3.6,5.6l2.6.7v2.69H398.15V267l2.4-.6c3-.8,3.3-1.1,3.3-5.7V234.25c0-6-2.2-7.89-6.8-7.89a42.13,42.13,0,0,0-9.19,1.3v33.18c0,4.7.3,4.9,3.29,5.7l2.4.6v2.69H366.07v-2.69Z"/><path d="M427.54,244.25c0-18.89,13.39-27,26.68-27,14.29,0,26.79,8.6,26.79,26.49,0,18.89-13.2,27.18-26.79,27.18C439.93,270.93,427.54,262.34,427.54,244.25Zm37,.5c0-19.89-3.8-23.69-10.6-23.69-6.2,0-9.89,4.5-9.89,21.49,0,20.19,3.29,24.59,10.49,24.59C460.42,267.14,464.52,263.64,464.52,244.75Z"/><path d="M489.6,257.34v-33h-6.2V222a27.5,27.5,0,0,0,16.4-16.59h5.59v13.19h13.1l-1.3,5.8h-11.8v32c0,4.9,1.5,6.9,6.4,6.9a36.12,36.12,0,0,0,7.1-.9v2.8a22.24,22.24,0,0,1-15.6,5.79C494.4,270.93,489.6,267,489.6,257.34Z"/><path d="M520.88,244c0-17.19,12.7-26.69,25.79-26.69,13.59,0,22.09,6.8,22.39,24.69H536.48c.3,16.19,6.39,20.59,16.59,20.59a30.85,30.85,0,0,0,14.49-3.7v3.3a29.22,29.22,0,0,1-20.89,9C529.38,270.93,520.88,260.74,520.88,244Zm15.5-5.8,16.89-.9c0-11.89-1.6-16.29-7.5-16.29C540.77,221,536.78,225.76,536.38,238.15Z"/><path class="cls-2" d="M333.57,78.26c0,1.17-.1,3.19-1.31,4.49a6.71,6.71,0,0,1-4.5,1.32H315a67,67,0,0,0-7.4.2,10.49,10.49,0,0,0-2.3.7c-.16.06-.2,0-.1-.1l29.21-29.71c.1-.1.16-.06.1.1a10.49,10.49,0,0,0-.7,2.3,67,67,0,0,0-.2,7.4Zm27.15,89.84a15.29,15.29,0,0,1-5.89-6.89A15.09,15.09,0,0,1,369,140.57a4.48,4.48,0,0,1,4.5,4.5,4.56,4.56,0,0,1-2.32,3.93,5.44,5.44,0,0,1-1.7.58,7.41,7.41,0,0,0-3.3,1.08,4.48,4.48,0,0,0-1.78,3.51,5.52,5.52,0,0,0,1.6,3.9,9.52,9.52,0,0,0,6.8,2.8,12.29,12.29,0,0,0,12.3-12.3c0-6.1-4.1-11.5-9.5-13.9a18.65,18.65,0,0,0-3.3-1c-1.5-.3-2.9-.5-3-.5-4.2-.5-14.7-3.8-15.4-13.1,0,0-3.1,14-9.3,17.8a10.22,10.22,0,0,1-2.3.8,13.44,13.44,0,0,1-2.2.3c-10.1.6-20.8-2.6-28.2-10.2,0,0-5-4.1-7.6-15.6-.6-2.8-1.8-7.8-2.5-12.5-.3-1.7-.4-3-.5-4.2,0-4.85,3-8.2,6.76-8.66a5.11,5.11,0,0,1,.58,0h19.76c3.5,0,5.5-.9,6.8-2.1,1.7-1.6,2.1-3.9,2.1-6.6V58.61a5.11,5.11,0,0,1,0-.58c.47-3.75,3.81-6.76,8.66-6.76h2.4a24,24,0,0,1,3.32.25,25.69,25.69,0,0,1,2.68.55c6.11,1.52,7.4,7.7,7.4,7.7l17.3,3c5.5,1,19.1,1.9,21.7,15.6,6.1,32.6,2.4,64.2,2.1,64.2-4.3,30.8-29.9,29.3-29.9,29.3A22.22,22.22,0,0,1,360.72,168.1Zm23-65.56c-3.31-.35-6.11,1-7.15,3.51a2.5,2.5,0,0,0-.27,1.4.82.82,0,0,0,.5.5c1.21.58,3.23.87,6.12,1.22s4.92.54,6.23.26a.79.79,0,0,0,.61-.36,2.49,2.49,0,0,0,.07-1.43C389.48,104.93,387.06,103,383.77,102.54Z"/><rect class="cls-3" y="180.22" width="723.24" height="142.07"/><path d="M384.19,268.27a15.69,15.69,0,0,1,2.43-1.13c4.53-1.25,4.89-1.66,4.9-6.28V213.1l-.6-.12c-.34.89-.68,1.79-1,2.69q-9.14,24.77-18.25,49.55c-.49,1.34-.81,2.44-2.74,2.44s-2.44-1-3-2.53q-8.81-24.74-17.68-49.46a7.38,7.38,0,0,0-1.36-2.57,17.52,17.52,0,0,0-.21,1.9q0,22.41,0,44.82c0,5.28.53,5.89,5.56,7.36a11.38,11.38,0,0,1,2.16,1.18l-.3.67h-18l-.37-.6a9.69,9.69,0,0,1,2-1.2c4.5-1.44,5.1-1.83,5.15-6.59.17-14.2.13-28.39.15-42.59,0-3-.07-5.94-.05-8.9s-1.46-4.62-4.32-5.22a20.06,20.06,0,0,1-2.93-1.12L336,202h27.09L377,239.78c.55-1.17.91-1.84,1.18-2.55,4.09-10.93,8.25-21.84,12.19-32.83.78-2.17,1.83-2.72,4-2.68,7.87.13,15.75.05,23.62.05l.3.7a8.42,8.42,0,0,1-1.82,1.15c-5.19,1.64-5.34,1.71-5.35,7.16q-.06,24.78,0,49.55c0,5.25.23,5.41,5.25,6.94a17.61,17.61,0,0,1,1.94.86l-.2.74H384.51Z"/><path d="M237.72,220.68c1.91,2.83,4.38,5.4,5.56,8.46,2.21,5.75-.49,12.69-5.9,16.34-7.56,5.1-15.87,5.1-24.31,2.86-1.78-.48-2.56,0-3.23,1.48-1.28,2.82-.2,4.68,3.13,4.75,6.76.15,13.54.08,20.31.13a26.5,26.5,0,0,1,3.88.23c10.53,1.67,14.94,9.7,10.84,19.65a20.09,20.09,0,0,1-11.8,11.16c-9.92,3.93-20.08,3.85-30.29,1.17a12.91,12.91,0,0,1-3.28-1.48c-6-3.57-6-11.26.05-14.7a58.62,58.62,0,0,1,7-2.86c-4.92-1.65-8.3-4.34-8.09-9.9.2-5.21,3.48-8.34,7.55-11.23-3.67-2.35-6.6-5.05-7.5-9.34a16,16,0,0,1,10.32-18.72,27.7,27.7,0,0,1,20.13-.27c2.54,1,4.14.69,6-1.12a11.07,11.07,0,0,1,9.42-3.21c3.45.47,5.41,3.28,4.82,6.84a4.5,4.5,0,0,1-6.16,3.81,5.72,5.72,0,0,1-2.9-2.58C241.46,218.91,240.38,218.61,237.72,220.68Zm-14.63,48v-.09c-2.87,0-5.75-.07-8.62.05a3.68,3.68,0,0,0-2.39,1c-4.29,4.77-1.43,14.2,4.79,15.6a26.93,26.93,0,0,0,15.58-1,11.93,11.93,0,0,0,2.91-1.59,8.71,8.71,0,0,0,3.07-9.44c-.8-2.72-3.05-4.24-7-4.43C228.66,268.59,225.87,268.7,223.09,268.7Zm5.57-35.59c-.37-2.8-.69-6.3-1.35-9.73-.5-2.61-2.37-3.8-5.07-3.72a4.48,4.48,0,0,0-4.68,3.9,45.74,45.74,0,0,0,.06,19c.7,3.22,2.36,4.36,5.25,4.25,2.73-.1,4.38-1.52,4.91-4.71C228.22,239.38,228.33,236.6,228.66,233.11Z"/><path d="M524.64,239.16c0-10.35.06-19.81,0-29.27,0-3.75-1.08-4.82-4.72-5.81-1.19-.32-2.34-.75-3.51-1.14.08-.3.15-.6.23-.91H535.2l.33.63a8.5,8.5,0,0,1-2.42,1.19c-3.26.49-4.59,2.43-4.62,5.56-.06,6.77-.18,13.54-.2,20.31,0,12,0,23.94,0,35.91v3.2c-3.65.9-5.94.13-8.13-3-11.86-17.05-24-33.91-36.08-50.82-.46-.65-1-1.25-1.86-2.34-.07,1.45-.16,2.34-.16,3.23v42.88c0,.74,0,1.48.08,2.22.41,4.21,1.08,4.94,5.2,6a23.33,23.33,0,0,1,2.86,1.14l-.28.82H470.78c.74-.74,1.11-1.42,1.58-1.51,5.87-1,6-3.25,6-8.86.12-11.51,0-23,0-34.52,0-4.27,0-8.54,0-12.81-.05-5.3-.68-6.09-5.7-7.71a9.92,9.92,0,0,1-1.6-.86l.19-.71c.75-.07,1.51-.21,2.27-.21,7.24,0,14.48,0,21.71-.05a3.93,3.93,0,0,1,3.66,1.86q11.63,16.31,23.4,32.53C522.91,236.92,523.53,237.7,524.64,239.16Z"/><path d="M73.54,204.63v29c3-.21,6-.06,8.8-.78,1.52-.39,3-2.05,3.9-3.51,1-1.69,1.35-3.81,2.07-5.72a13.33,13.33,0,0,1,1.18-2l.7.26v27.22c-.86-.94-1.5-1.35-1.71-1.92-.71-1.91-1.2-3.89-1.89-5.81a7,7,0,0,0-7.44-5c-1.83.06-3.66,0-5.6,0,0,9.2,0,18.17,0,27.15,0,2.61,2.16,2.89,4.08,3.35,1.33.32,2.65.7,4,1.05l-.24,1H46.93l-.27-.61a13.87,13.87,0,0,1,2.25-1.12c4.46-1.27,5-1.75,5-6.3q.09-25.47,0-50.95c0-4.43-.63-5-4.84-6.16a19,19,0,0,1-2.42-1l.2-.72H99.69q.48,10.59,1,21.22l-.79.48a12.35,12.35,0,0,1-1.71-2.08c-1.93-3.79-3.75-7.65-5.65-11.46-2-4-5.4-5.64-9.78-5.57C79.72,204.67,76.7,204.63,73.54,204.63Z"/><path d="M98.94,243.5c.06-16.61,10.63-26.86,27.77-26.66,15.21.18,26.59,10.3,26.08,27.75-.47,15.87-10.86,25.77-27.9,25.69C109.28,270.21,98.89,259.48,98.94,243.5Zm37,0c-.89-5.77-1.57-12.21-3-18.5-.85-3.84-3.52-5.32-7.18-5.34s-5.94,1.45-7.1,5.41a49.77,49.77,0,0,0-1.83,10.06c-.67,8.71-.72,17.43,1.44,26,1.17,4.63,3.56,6.34,7.9,6.31,4.18,0,6.52-1.66,7.43-6.38C134.68,255.52,135.1,249.88,135.9,243.51Z"/><path d="M536.21,243.54c0-16.62,10.61-26.89,27.74-26.7,15.27.17,26.61,10.34,26.11,27.72-.46,15.88-10.84,25.8-27.86,25.72C546.57,270.22,536.17,259.51,536.21,243.54ZM573,245.08c-.53-5.7-.94-10.59-1.47-15.46a19.5,19.5,0,0,0-1.08-4.3c-1.38-3.95-3.59-5.61-7.32-5.65s-6.05,1.49-7.24,5.61a49.24,49.24,0,0,0-1.75,9.8c-.68,8.61-.7,17.24,1.35,25.71,1.18,4.86,3.53,6.64,7.93,6.63s6.59-1.67,7.55-6.59C572,255.4,572.37,249.85,573,245.08Z"/><path d="M297.13,259.06a15.9,15.9,0,0,1-1.54,2.63c-10.19,11.54-28.1,10.13-36.52,4.32-5.31-3.66-7.81-9.08-8.7-15.25-1.46-10.09-.11-19.47,7.64-27,7.42-7.18,20.29-9.23,29.6-4.75,3.74,1.8,6.76,4.51,8.17,8.37,1.51,4.12,2.35,8.48,3.63,13.27H266.79c-.23,5.49.22,10.49,2.83,15.07s7,5.8,11.81,6.1a27.3,27.3,0,0,0,15-3.23Zm-14.57-22.14c-.61-4.56-1-8.68-1.75-12.74a5.11,5.11,0,0,0-4.67-4.47,6.19,6.19,0,0,0-6.57,3.21c-2.55,4.58-2.92,9.59-2.77,15Z"/><path d="M467.58,259.1a15.67,15.67,0,0,1-1.58,2.63c-10.11,11.39-27.73,10.14-36.29,4.41-5.36-3.59-7.91-9-8.84-15.17-1.5-10-.28-19.29,7.24-26.83s20.2-9.65,29.76-5.2c3.76,1.75,6.83,4.42,8.27,8.27,1.56,4.18,2.44,8.63,3.76,13.51H437.23c-.2,5.38.24,10.29,2.73,14.83,2.6,4.71,7.06,6,12,6.29A27.86,27.86,0,0,0,467,258.61ZM453,236.91c-.6-4.49-1-8.69-1.76-12.83a5.07,5.07,0,0,0-4.47-4.36,6.12,6.12,0,0,0-6.5,2.82c-2.82,4.68-3.18,9.86-3,15.39Z"/><path d="M676.58,240.79H643.89c-.22,5.39.24,10.4,2.86,15s7,5.77,11.82,6.07A35.32,35.32,0,0,0,674.2,259a14.89,14.89,0,0,1-1.72,2.9c-6.66,7-15,9.31-24.36,8.17-14.65-1.78-21.8-11.15-21.11-27.4.79-18.6,17.36-30.23,35.16-24.66,4.85,1.52,8.74,4.47,10.61,9.17C674.42,231.34,675.23,235.82,676.58,240.79Zm-16.87-3.88c-.67-4.7-.86-9.08-2-13.2a5.73,5.73,0,0,0-10.14-1.91c-3.76,4.68-3.67,10.35-3.72,16.14Z"/><path d="M184.31,269H155.24l-.38-.66a8.35,8.35,0,0,1,2.29-1.29c2.91-.57,3.89-2.28,3.87-5.14q-.14-16.85,0-33.68a6.58,6.58,0,0,0-3.55-6.4,28.21,28.21,0,0,1-2.81-2l.18-.78,6.15-.65c4.7-.5,9.41-.94,14.11-1.53,1.93-.24,2.78.29,2.62,2.34-.13,1.63,0,3.27,0,5.42,1.88-1.67,3.28-3.12,4.87-4.29,3-2.17,6.19-3.72,10-3.54s6.3,2.21,6.88,5.64c.78,4.57-.88,8.16-4.39,9.49a7.29,7.29,0,0,1-9.37-3.12c-2-3.38-3-3.89-5.73-2.29a4.42,4.42,0,0,0-2,3.11c-.15,11-.05,21.9-.12,32.85,0,2.68,1,4.17,3.74,4.55a16.62,16.62,0,0,1,3,1Z"/><path d="M305.25,223.35H300l-.21-.63c.71-.41,1.41-.85,2.15-1.23,6.24-3.22,11.52-7.55,14.87-13.79,1.2-2.24,2.56-2.91,5.26-2.18v13h12.29l-.69,5H322.33c-.05,1.12-.14,2.09-.14,3.06q0,14.34,0,28.69c0,6.76,1.85,8.4,8.61,7.69,1.36-.14,2.71-.38,4.84-.69a18.57,18.57,0,0,1-1.67,2.62c-5.34,5.5-16,7.29-22.8,3.82-4.83-2.46-5.83-7-5.88-11.76-.09-10,0-20,0-30.08Z"/><path d="M627.21,262.24a30.16,30.16,0,0,1-2.29,2.95c-5.36,5.1-15.13,6.78-21.89,3.75-5.19-2.34-6.37-7-6.42-12-.1-10,0-20,0-30.07v-3.23l-5.23-.29-.68-.9a15.1,15.1,0,0,0,1.52-.52A36.19,36.19,0,0,0,609,206.62c.58-1,2.56-1.23,4.52-2.09v13.93h12.2l-.67,5.06H613.64c0,1.15-.13,2-.13,3q0,14.34,0,28.68c0,6.89,1.94,8.57,8.83,7.74C623.67,262.73,625,262.54,627.21,262.24Z"/><path class="cls-3" d="M223.09,268.7c2.78,0,5.57-.11,8.34,0,3.95.19,6.2,1.71,7,4.43a8.71,8.71,0,0,1-3.07,9.44,11.93,11.93,0,0,1-2.91,1.59,26.93,26.93,0,0,1-15.58,1c-6.22-1.4-9.08-10.83-4.79-15.6a3.68,3.68,0,0,1,2.39-1c2.87-.12,5.75-.05,8.62-.05Z"/><path class="cls-3" d="M228.66,233.11c-.33,3.49-.44,6.27-.88,9-.53,3.19-2.18,4.61-4.91,4.71-2.89.11-4.55-1-5.25-4.25a45.74,45.74,0,0,1-.06-19,4.48,4.48,0,0,1,4.68-3.9c2.7-.08,4.57,1.11,5.07,3.72C228,226.81,228.29,230.31,228.66,233.11Z"/><path class="cls-3" d="M135.9,243.51c-.8,6.37-1.22,12-2.3,17.53-.91,4.72-3.25,6.36-7.43,6.38-4.34,0-6.73-1.68-7.9-6.31-2.16-8.54-2.11-17.26-1.44-26a49.77,49.77,0,0,1,1.83-10.06c1.16-4,3.43-5.43,7.1-5.41s6.33,1.5,7.18,5.34C134.33,231.3,135,237.74,135.9,243.51Z"/><path class="cls-3" d="M573,245.08c-.59,4.77-1,10.32-2,15.75-1,4.92-3.27,6.58-7.55,6.59s-6.75-1.77-7.93-6.63c-2.05-8.47-2-17.1-1.35-25.71a49.24,49.24,0,0,1,1.75-9.8c1.19-4.12,3.48-5.65,7.24-5.61s5.94,1.7,7.32,5.65a19.5,19.5,0,0,1,1.08,4.3C572,234.49,572.43,239.38,573,245.08Z"/><path class="cls-3" d="M282.56,236.92l-15.76,1c-.15-5.41.22-10.42,2.77-15a6.19,6.19,0,0,1,6.57-3.21,5.11,5.11,0,0,1,4.67,4.47C281.55,228.24,282,232.36,282.56,236.92Z"/><path class="cls-3" d="M453,236.91l-15.71,1c-.2-5.53.16-10.71,3-15.39a6.12,6.12,0,0,1,6.5-2.82,5.07,5.07,0,0,1,4.47,4.36C452,228.22,452.39,232.42,453,236.91Z"/><path class="cls-3" d="M659.71,236.91l-15.86,1c0-5.79,0-11.46,3.72-16.14a5.73,5.73,0,0,1,10.14,1.91C658.85,227.83,659,232.21,659.71,236.91Z"/></svg>