<svg id="Layer_1" data-name="Layer 1" xmlns="http://www.w3.org/2000/svg" viewBox="0 0 41.41 43.98"><defs><style>.cls-1{fill:#00a82d;}.cls-2{fill:#a5a5a5;stroke:#fff;stroke-linecap:round;stroke-miterlimit:10;stroke-width:1.77px;}.cls-3{fill:#fff;}</style></defs><title>new_tag</title><path class="cls-1" d="M16.64,1.41,28.22,11.84A2.37,2.37,0,0,1,29,13.6V35.47a2.38,2.38,0,0,1-2.38,2.37H3.71a2.37,2.37,0,0,1-2.37-2.37V13.22a2.37,2.37,0,0,1,.8-1.78l11.34-10A2.38,2.38,0,0,1,16.64,1.41Z"/><line class="cls-2" x1="9.46" y1="25.9" x2="20.88" y2="25.9"/><line class="cls-2" x1="9.46" y1="30.58" x2="20.88" y2="30.58"/><circle class="cls-3" cx="32.3" cy="36.75" r="10.35"/><rect class="cls-1" x="31.32" y="29.17" width="4.46" height="13.74"/><rect class="cls-1" x="26.68" y="33.63" width="13.56" height="4.46"/></svg>