<svg id="Layer_1" data-name="Layer 1" xmlns="http://www.w3.org/2000/svg" viewBox="0 0 41.32 46.15"><defs><style>.cls-1{fill:none;stroke:#858f96;stroke-miterlimit:10;stroke-width:2.05px;}.cls-2{fill:#fff;}.cls-3{fill:#858f96;}</style></defs><title>new_tag_grey</title><line class="cls-1" x1="5.14" y1="26.32" x2="25.7" y2="26.32"/><line class="cls-1" x1="5.02" y1="31" x2="25.82" y2="31"/><circle class="cls-1" cx="15.07" cy="14" r="3.69"/><circle class="cls-2" cx="30.55" cy="35.38" r="11.47"/><circle class="cls-3" cx="30.55" cy="35.38" r="10.35"/><path class="cls-1" d="M16.89,1.83,28.47,12.26A2.36,2.36,0,0,1,29.26,14V35.88a2.39,2.39,0,0,1-2.38,2.38H4a2.38,2.38,0,0,1-2.37-2.38V13.64a2.37,2.37,0,0,1,.8-1.78l11.34-10A2.37,2.37,0,0,1,16.89,1.83Z"/><rect class="cls-2" x="29.62" y="28.5" width="2.04" height="13.76"/><rect class="cls-2" x="23.76" y="34.18" width="13.58" height="2.04"/></svg>